<svg width="13" height="11" viewBox="0 0 13 11" fill="none" xmlns="http://www.w3.org/2000/svg">
<path fill-rule="evenodd" clip-rule="evenodd" d="M0.000488281 5.24834V4.96075C0.000488281 4.8485 0.0916422 4.75024 0.210911 4.75024H8.24405C8.3563 4.75024 8.45447 4.84148 8.45447 4.96075V5.24834C8.45447 5.36059 8.36332 5.45885 8.24405 5.45885H0.210911C0.0916422 5.45885 0.000488281 5.36761 0.000488281 5.24834Z" fill="#55DBC9"/>
<path d="M9.26804 10.2221C9.36626 10.2221 9.46449 10.1799 9.53464 10.1097L12.5023 7.10692C12.825 6.78419 13.0004 6.35625 13.0004 5.90022V4.31465C13.0004 3.85862 12.825 3.43068 12.5023 3.10795L9.53464 0.112191C9.46449 0.0420331 9.36626 0 9.26804 0C9.16982 0 9.07159 0.0420331 9.00144 0.112191C8.85411 0.259523 8.85411 0.498067 9.00144 0.645398L11.9691 3.64116C12.1515 3.82357 12.2498 4.0691 12.2498 4.32167V5.90725C12.2498 6.15981 12.1515 6.40535 11.9691 6.58776L9.00144 9.58352C8.93128 9.65367 8.88916 9.75198 8.88916 9.85021C8.88916 9.94843 8.92426 10.0466 9.00144 10.1167C9.07861 10.1869 9.16982 10.2221 9.26804 10.2221Z" fill="#55DBC9"/>
</svg>
