<svg id="Layer_1" data-name="Layer 1" xmlns="http://www.w3.org/2000/svg" viewBox="0 0 880.29 520"><defs><style>.cls-1{fill:#ededed;}</style></defs><title>33</title><path class="cls-1" d="M354.81,280.85c25.78,0,49.43,2.23,70.48,6.47,21.29,4.23,39.5,11.37,54.63,21.18a99.43,99.43,0,0,1,35.24,39c8.28,16.28,12.54,36.35,12.54,60.21,0,25.64-6.15,47.27-18.69,64.44s-30.74,31.22-55.1,42.14c33.35,9.15,58.18,25,74.73,47.5,16.32,22.74,24.6,50,24.6,81.83,0,25.87-5.2,48.17-15.84,66.9a131.24,131.24,0,0,1-42.81,46.16c-18,12-38.32,20.73-61.49,26.53a288.47,288.47,0,0,1-71,8.7H99.86V280.85ZM339.68,487.56c21.28,0,38.78-4.69,52.26-14.28,13.72-9.58,20.58-25,20.58-46.38,0-11.81-2.37-21.63-6.86-29.43a48.55,48.55,0,0,0-18.21-17.84,78.45,78.45,0,0,0-26.25-8.92,197.19,197.19,0,0,0-30.75-2.45H219.06V487.78H339.68Zm6.85,216.74a179.29,179.29,0,0,0,33.35-3.13A88.78,88.78,0,0,0,408,690.47a58.84,58.84,0,0,0,19.39-20.29c4.73-8.7,7.33-19.62,7.33-33q0-39.13-23.41-56.19c-15.61-11.15-36.43-16.73-62.2-16.73H219.06V704.52H346.53Z" transform="translate(-99.86 -280.85)"/><path class="cls-1" d="M722.82,703C738.9,717.67,762.31,725,792.58,725q32.64,0,56.06-15.38c15.61-10.26,25.3-21.18,28.85-32.56h94.84q-22.71,66.57-69.77,95.22c-31.45,19.17-69.3,28.54-113.76,28.54-31,0-58.65-4.68-83.49-13.83-24.83-9.36-45.64-22.52-62.91-39.69a174.17,174.17,0,0,1-39.73-61.54c-9.46-23.86-13.95-50.17-13.95-78.71,0-27.65,4.73-53.3,14.42-77.16s23.18-44.37,40.92-61.76a194.09,194.09,0,0,1,63.38-41.25C732,416.87,759.24,412,789,412c33.34,0,62.44,6,87.27,18.28s45.17,28.54,61,49.06a199,199,0,0,1,34.53,70,244.48,244.48,0,0,1,7.57,82.28H696.09C697.75,664.16,706.5,688,722.82,703Zm121.8-194.67q-19.51-20.06-58.89-20.06c-17.27,0-31.46,2.67-42.81,8.25s-20.34,12.26-27.2,20.29a73.91,73.91,0,0,0-14.43,25.64,106.53,106.53,0,0,0-5,24.31H871.58C866.38,541.3,857.39,521.67,844.62,508.29Z" transform="translate(-99.86 -280.85)"/><path class="cls-1" d="M891.68,307.38H673.39v52.85H891.68Z" transform="translate(-99.86 -280.85)"/></svg>