<svg id="Layer_1" data-name="Layer 1" xmlns="http://www.w3.org/2000/svg" viewBox="0 0 257.73 520"><defs><style>.cls-1{fill:#ededed;fill-rule:evenodd;}</style></defs><title>31</title><path class="cls-1" d="M659.29,535.43c-.44,3.82-2.69,4-5.84,4H581.26v260.8h-114v-7.63q0-123.09.22-246.17c0-5.52-1.57-7.21-7.42-7-16,.42-31.93.21-48.35.21V450h55.77V443.2c0-19.94-.22-39.87.45-59.59a123.62,123.62,0,0,1,11.47-49.82c14.62-31,41.61-46,75.57-51.32a246.43,246.43,0,0,1,30.58-2.12c25.19-.21,50.38,0,75.56,0h7v89.27h-7.2c-18,.21-36,0-54,1.06-14.85.85-23.62,8.91-24.29,22.9-.9,18.66-.23,37.32-.23,56.61h87C665.59,478.61,662.44,507,659.29,535.43Z" transform="translate(-411.69 -280.26)"/></svg>