<svg id="Layer_1" data-name="Layer 1" xmlns="http://www.w3.org/2000/svg" xmlns:xlink="http://www.w3.org/1999/xlink" viewBox="0 0 433.57 714.91"><defs><style>.cls-1,.cls-5{fill:none;}.cls-2{clip-path:url(#clip-path);}.cls-3{fill:#55dbc9;}.cls-4{fill:#fff;}.cls-5{stroke:#999;stroke-linecap:round;stroke-miterlimit:10;}</style><clipPath id="clip-path" transform="translate(-302.89 -86.21)"><rect class="cls-1" x="298.98" y="82.29" width="437.37" height="719"/></clipPath></defs><title>30</title><g class="cls-2"><path d="M701.91,409.83c-7.77-5.29-18.36-4.68-26.22-4.32l-1.68.08a90.43,90.43,0,0,0-21.89,3.71c-16.51,4.95-31.61,15.19-43.7,29.49a105.18,105.18,0,0,0-6.89,9.09L524.81,300.62A37.12,37.12,0,1,0,459,334.88l36.64,70.27a38.28,38.28,0,0,0-19.69,4.15,37.25,37.25,0,0,0-19.33,25.43,39,39,0,0,0-29.58,3,40.56,40.56,0,0,0-14.92,13.33l-1.94-3.79a37.22,37.22,0,0,0-50.24-16.07c-18.18,9.44-25.16,32.05-15.62,50.41l84.4,162.09,6.88,13.24.8,1.51c.09.17.35.35.44.53s.09.44.18.61c16.51,31.7,44.93,52.36,74.6,57.74a26.52,26.52,0,0,0-7.51,33.46l18.72,35.93a26.46,26.46,0,0,0,35.76,11.39l163.77-85.28A26.57,26.57,0,0,0,733.43,677l-18.72-36A26.45,26.45,0,0,0,679,629.58l-.36.17c3.89-12.09,4.68-27.37,2.12-48.38-1-8.56-1.41-28.25-1.41-30.9.27-9.27-.26-17.13-.71-24.1-.88-12.36-1.5-21.37,2.74-32.31,1.06-2.74,2.3-5.48,3.62-8.12a161.68,161.68,0,0,1,10-16.34c2.2-3.35,4.41-6.62,6.71-10.33,3.79-6.18,8.12-13.24,10-21.45C714.18,426.7,710.39,415.66,701.91,409.83Zm-217.8,15.28c9.54-4.95,21-1.77,25.6,7.06L531.52,474l3.27,6.18c4.59,8.83.61,20-8.92,25S505,507,500.27,498.12l-.09-.09-7.24-13.86-17.75-34.08C470.6,441.26,474.58,430.05,484.11,425.11ZM435.2,453.53c9.36-4.85,20.31-2.91,24,4.15l.27.62,17.74,34.08,7.16,13.86.08.09,2,3.8c3.71,7.15-1.06,17.21-10.41,22.07s-20.4,2.91-24-4.15l-2-3.89L437.41,500l-12.63-24.28C421.07,468.54,425.84,458.39,435.2,453.53ZM698.91,649.44l18.72,36A8.83,8.83,0,0,1,714,697.38L550.24,782.66a8.85,8.85,0,0,1-11.83-3.88l-18.72-36a8.79,8.79,0,0,1,3.62-11.92L563,710.18l66.74-34.78,57.39-29.84A8.79,8.79,0,0,1,698.91,649.44Zm-4.59-215.33c-1.24,5.39-4.42,10.6-8,16.51-1.95,3.18-4.07,6.36-6.18,9.45a174.85,174.85,0,0,0-11,18.18c-1.59,3.18-3,6.45-4.33,9.72-5.65,14.56-4.76,26.92-3.79,39.9a199.74,199.74,0,0,1,.7,22.6v1.94c0,.18.09.27.09.45.09,6,.53,22.6,1.5,30.9,5.48,46.17-3.53,56.15-41.58,76l-66.74,34.78c-34.61,18-80.43-1.23-102.15-42.9a2.34,2.34,0,0,0-.44-.53c-.09-.18-.09-.44-.18-.62l-.79-1.5-6.89-13.24L360,473.49a19.41,19.41,0,1,1,34.43-17.93l7.77,14.93,6.89,13.33,12.62,24.27,12.63,24.2,2,4c8.3,15.89,29.75,21.19,47.94,11.65a38.72,38.72,0,0,0,20-24.81,37.75,37.75,0,0,0,29.57-2.2c18.19-9.45,25.52-31.35,16.43-48.91l-3.27-6.18L525.25,424l-.79-1.5-1.33-2.65-48.47-93.14a19.41,19.41,0,1,1,34.44-17.92L591,466c-1.32,2.83-2.64,5.74-3.88,8.65a118.43,118.43,0,0,0-5.83,17.84,8.84,8.84,0,0,0,17.22,4,108.46,108.46,0,0,1,5-15.18,117.43,117.43,0,0,1,18.36-31.17c9.89-11.74,22.08-20,35.23-24a75.83,75.83,0,0,1,17.66-3l1.76-.09c4.33-.27,12.45-.71,15.19,1.23S695.11,430.67,694.32,434.11Z" transform="translate(-302.89 -86.21)"/><path class="cls-3" d="M694.32,434.11c-1.23,5.39-4.41,10.6-8,16.51-1.94,3.18-4.06,6.36-6.18,9.45a174,174,0,0,0-11,18.19c-1.59,3.17-3,6.44-4.32,9.71-5.65,14.56-4.77,26.92-3.8,39.9a202,202,0,0,1,.71,22.6v1.95c0,.17.09.26.09.44.08,6,.53,22.6,1.5,30.9,5.47,46.17-3.54,56.15-41.59,76l-66.74,34.79c-34.61,18-80.43-1.24-102.15-42.91a2.29,2.29,0,0,0-.44-.53c-.09-.18-.09-.44-.18-.62l-.79-1.5-6.89-13.24L360,473.49a19.41,19.41,0,1,1,34.44-17.92l7.76,14.92,6.89,13.33L421.7,508.1l12.62,24.19,2,4c8.3,15.89,29.75,21.19,47.94,11.65a38.69,38.69,0,0,0,20-24.81,37.78,37.78,0,0,0,29.58-2.2c18.18-9.45,25.51-31.34,16.42-48.91l-3.27-6.18L525.26,424l-.8-1.5-1.32-2.65-48.47-93.14a19.41,19.41,0,1,1,34.43-17.92L591,466c-1.33,2.83-2.65,5.74-3.89,8.66a117.84,117.84,0,0,0-5.82,17.83,8.83,8.83,0,0,0,17.21,4,108.46,108.46,0,0,1,5-15.18,117.18,117.18,0,0,1,18.37-31.17c9.89-11.74,22.07-20,35.22-24a75.92,75.92,0,0,1,17.66-3l1.77-.09c4.32-.27,12.45-.71,15.18,1.23S695.12,430.67,694.32,434.11Z" transform="translate(-302.89 -86.21)"/><path class="cls-4" d="M484.11,425.11c9.54-4.95,21-1.77,25.6,7.06L531.52,474l3.27,6.18c4.59,8.83.61,20-8.83,25S505,507,500.36,498.12l-.09-.09-7.15-13.86-17.75-34.08C470.6,441.26,474.58,430.05,484.11,425.11Z" transform="translate(-302.89 -86.21)"/><path class="cls-4" d="M435.2,453.54c9.36-4.86,20.31-2.92,24,4.14l.27.62,17.75,34.08,7.15,13.86.08.09,2,3.8c3.7,7.15-1.06,17.21-10.42,22.07s-20.4,2.91-24.1-4.15l-2-3.89L437.32,500,424.7,475.69C421.08,468.54,425.84,458.39,435.2,453.54Z" transform="translate(-302.89 -86.21)"/><path class="cls-4" d="M698.91,649.44l18.72,36A8.83,8.83,0,0,1,714,697.38L550.24,782.67a8.86,8.86,0,0,1-11.83-3.89l-18.72-36a8.79,8.79,0,0,1,3.62-11.92L563,710.18l66.74-34.78,57.39-29.84A8.79,8.79,0,0,1,698.91,649.44Z" transform="translate(-302.89 -86.21)"/><path class="cls-5" d="M303.39,242.71,426.9,299" transform="translate(-302.89 -86.21)"/><path class="cls-5" d="M566.66,130.85,513,262.93" transform="translate(-302.89 -86.21)"/><path class="cls-5" d="M451.89,86.71l28.43,163.41" transform="translate(-302.89 -86.21)"/><path class="cls-5" d="M343.91,141.71l99.15,121.57" transform="translate(-302.89 -86.21)"/></g></svg>