<svg id="Layer_1" data-name="Layer 1" xmlns="http://www.w3.org/2000/svg" viewBox="0 0 551.07 519.56"><defs><style>.cls-1{fill:#ededed;}</style></defs><title>32</title><path class="cls-1" d="M539.7,674.81c-78.82,0-142.91-60.42-142.91-134.74S460.88,405.33,539.7,405.33s142.92,60.42,142.92,134.74S618.53,674.81,539.7,674.81Zm0-214.57C492.92,460.24,455,496,455,540.07s37.89,79.83,84.67,79.83,84.68-35.72,84.68-79.83S586.25,460.24,539.7,460.24Z" transform="translate(-264.17 -280.07)"/><path class="cls-1" d="M686.84,438c-16.14,0-29.24-12.35-29.24-27.57s13.1-27.56,29.24-27.56,29.23,12.35,29.23,27.56S703,438,686.84,438Z" transform="translate(-264.17 -280.07)"/><path class="cls-1" d="M671.86,799.63H407.55c-79.06,0-143.38-60.65-143.38-135.18V415.25c0-74.53,64.32-135.18,143.38-135.18H671.86c79.06,0,143.38,60.65,143.38,135.18v249.2C815.24,739.2,750.92,799.63,671.86,799.63ZM403.58,329.25c-48.19,0-87.48,37.05-87.48,82.48V668.19c0,45.43,39.29,82.48,87.48,82.48h272c48.18,0,87.48-37,87.48-82.48V411.73c0-45.43-39.3-82.48-87.48-82.48Z" transform="translate(-264.17 -280.07)"/></svg>