<svg id="Layer_1" data-name="Layer 1" xmlns="http://www.w3.org/2000/svg" viewBox="0 0 871.63 296.27"><defs><style>.cls-1{fill:#303030;}.cls-2{fill:#fff;}</style></defs><title>34</title><path class="cls-1" d="M888.78,686.09l-727.24-1a54.14,54.14,0,0,1-54-54.13l.18-129.12c0-20.31,15.44-50.4,25.61-70.32,1.28-2.55,2.49-4.88,3.59-7,7.43-14.9,20.3-34.68,45.74-34.64l685.92,1c25.41,0,38.22,19.85,45.65,34.77l3.56,7c10.12,19.92,25.41,50,25.38,70.35l-.18,129.12A54.09,54.09,0,0,1,888.78,686.09Z" transform="translate(-107.49 -389.83)"/><path class="cls-2" d="M868.19,635.29l-685.93-1a41.79,41.79,0,0,1-41.72-41.8l.22-159a41.83,41.83,0,0,1,41.84-41.68l685.93,1a41.84,41.84,0,0,1,41.73,41.8l-.22,159A41.82,41.82,0,0,1,868.19,635.29Z" transform="translate(-107.49 -389.83)"/><path class="cls-1" d="M195.21,514c0-25.7,15.44-45.67,41.57-45.67,20.47,0,32.84,11.73,35.18,27.92H261.19c-2.08-10.9-10.8-18.37-24.63-18.37-19.23,0-30,15.56-30,36.12,0,21.44,11.9,35.87,30.15,35.87,16.53,0,24.38-11.26,25.47-24.13h10.91a37.23,37.23,0,0,1-10.54,24.61c-6.14,6-15.08,9.18-26.24,9.18C211.41,559.56,195.21,540.61,195.21,514Z" transform="translate(-107.49 -389.83)"/><path class="cls-1" d="M277.47,494.57h9.2V474.63h9.92v19.94h12.27v8.09H296.59v41.12c0,4.41,2.34,5.87,6.39,5.87a19,19,0,0,0,5.26-.84h.36v8.57a40.31,40.31,0,0,1-8,.87c-8.1,0-14-3.32-14-12.25V502.66h-9.2Z" transform="translate(-107.49 -389.83)"/><path class="cls-1" d="M326.63,505.1h.25c3.8-6.12,10.44-11.26,18.87-11.26a9.81,9.81,0,0,1,4.05.73v9.55h-.36a12.19,12.19,0,0,0-4.42-.62c-9.81,0-18.39,7.36-18.39,19.21v35.14H316.7V494.57h9.93Z" transform="translate(-107.49 -389.83)"/><path class="cls-1" d="M366.55,470.32h-9.92v87.53h9.92Z" transform="translate(-107.49 -389.83)"/><path class="cls-1" d="M432.39,470.32h45.36c8.58,0,15,2.08,19.6,5.62a21.12,21.12,0,0,1,8.32,17.28c0,8.31-3.54,13.59-10.91,16.77v.36c9.56,3.06,15.08,11.16,15.08,21.07,0,9.44-3.8,16.51-10,20.92-5.26,3.69-12.15,5.51-21.2,5.51H432.39Zm41.06,34.05c4.89,0,8.21-2.33,8.21-7s-3.43-7.22-8.32-7.22h-15.8v14.22h15.91Zm2.33,33.43c5.52,0,9.31-3.32,9.31-8.57,0-5.65-4.16-8.45-9.42-8.45H457.54v17Z" transform="translate(-107.49 -389.83)"/><path class="cls-1" d="M514,470.31l43.5.06c17.88,0,33.09,8.25,33.06,26.11,0,10-5.17,17.13-14.37,21.27v.36c7.11,2.71,10.79,7.6,12.24,14.46,2.32,10.53.34,23.15,3.51,24v1.35l-25.26,0c-2.44-1.72-1.44-12.5-3.29-20.34-1.6-6.75-4.51-10.18-12-10.19l-11.9,0,0,30.48-25.62,0,.12-87.45Zm25.56,38.86,13.72,0c7.34,0,11.39-3.16,11.4-9.28,0-5.76-3.67-9.45-11-9.46l-14.08,0Z" transform="translate(-107.49 -389.83)"/><path class="cls-1" d="M624.09,470.46l26.09,0,32.36,87.57-27.23,0L651,545.16l-29.67,0L617,558l-25.47,0Zm3.09,57.06,18.14,0-5.49-17.14c-1.34-4.3-3.3-11.27-3.3-11.27h-.26s-1.83,7-3.3,11.26Z" transform="translate(-107.49 -389.83)"/><path class="cls-1" d="M684.9,470.32h25.62l28.69,49.22h.22V470.32h24.78v87.53h-26.5L709.9,508.27h-.25v49.58H684.9Z" transform="translate(-107.49 -389.83)"/><path class="cls-1" d="M772.27,470.32h40.44c25.25,0,42.77,16.15,42.77,44s-16.68,43.6-43.87,43.6H772.27Zm37.26,66.35c11.75,0,20-7.58,20-22.42,0-14.44-7.74-22.78-20-22.78H797.89v45.16h11.64Z" transform="translate(-107.49 -389.83)"/><path class="cls-1" d="M379.36,507.58h16.32V490.81h8.58v16.77h16.38v8.27H404.26v16.77h-8.58V515.85H379.36Z" transform="translate(-107.49 -389.83)"/></svg>
