<svg id="Layer_1" data-name="Layer 1" xmlns="http://www.w3.org/2000/svg" xmlns:xlink="http://www.w3.org/1999/xlink" viewBox="0 0 848 300.05"><defs><style>.cls-1{fill:none;}.cls-2{fill:#fff;}.cls-3{fill:#303030;}.cls-4{clip-path:url(#clip-path);}.cls-5{fill:#55dbc9;}</style><clipPath id="clip-path" transform="translate(-95.16 -381.94)"><rect class="cls-1" x="107.41" y="381.94" width="848" height="300.05"/></clipPath></defs><title>35</title><path class="cls-2" d="M868.19,635.29l-685.93-1a41.79,41.79,0,0,1-41.72-41.8l.22-159a41.83,41.83,0,0,1,41.84-41.68l685.93,1a41.84,41.84,0,0,1,41.73,41.8l-.22,159A41.82,41.82,0,0,1,868.19,635.29Z" transform="translate(-95.16 -381.94)"/><path class="cls-3" d="M195.21,514c0-25.7,15.44-45.67,41.57-45.67,20.47,0,32.84,11.73,35.18,27.92H261.19c-2.08-10.9-10.8-18.37-24.63-18.37-19.23,0-30,15.56-30,36.12,0,21.44,11.9,35.87,30.15,35.87,16.53,0,24.38-11.26,25.47-24.13h10.91a37.23,37.23,0,0,1-10.54,24.61c-6.14,6-15.08,9.18-26.24,9.18C211.41,559.56,195.21,540.61,195.21,514Z" transform="translate(-95.16 -381.94)"/><path class="cls-3" d="M277.47,494.57h9.2V474.63h9.92v19.94h12.27v8.09H296.59v41.12c0,4.41,2.34,5.87,6.39,5.87a19,19,0,0,0,5.26-.84h.36v8.57a40.31,40.31,0,0,1-8,.87c-8.1,0-14-3.32-14-12.25V502.66h-9.2Z" transform="translate(-95.16 -381.94)"/><path class="cls-3" d="M326.63,505.1h.25c3.8-6.12,10.44-11.26,18.87-11.26a9.81,9.81,0,0,1,4.05.73v9.55h-.36a12.19,12.19,0,0,0-4.42-.62c-9.81,0-18.39,7.36-18.39,19.21v35.14H316.7V494.57h9.93Z" transform="translate(-95.16 -381.94)"/><path class="cls-3" d="M366.55,470.32h-9.92v87.53h9.92Z" transform="translate(-95.16 -381.94)"/><path class="cls-3" d="M432.39,470.32h45.36c8.58,0,15,2.08,19.6,5.62a21.12,21.12,0,0,1,8.32,17.28c0,8.31-3.54,13.59-10.91,16.77v.36c9.56,3.06,15.08,11.16,15.08,21.07,0,9.44-3.8,16.51-10,20.92-5.26,3.69-12.15,5.51-21.2,5.51H432.39Zm41.06,34.05c4.89,0,8.21-2.33,8.21-7s-3.43-7.22-8.32-7.22h-15.8v14.22h15.91Zm2.33,33.43c5.52,0,9.31-3.32,9.31-8.57,0-5.65-4.16-8.45-9.42-8.45H457.54v17Z" transform="translate(-95.16 -381.94)"/><path class="cls-3" d="M514,470.31l43.5.06c17.88,0,33.09,8.25,33.06,26.11,0,10-5.17,17.13-14.37,21.27v.36c7.11,2.71,10.79,7.6,12.24,14.46,2.32,10.53.34,23.15,3.51,24v1.35l-25.26,0c-2.44-1.72-1.44-12.5-3.29-20.34-1.6-6.75-4.51-10.18-12-10.19l-11.9,0,0,30.48-25.62,0,.12-87.45Zm25.56,38.86,13.72,0c7.34,0,11.39-3.16,11.4-9.28,0-5.76-3.67-9.45-11-9.46l-14.08,0Z" transform="translate(-95.16 -381.94)"/><path class="cls-3" d="M624.09,470.46l26.09,0,32.36,87.57-27.23,0L651,545.16l-29.67,0L617,558l-25.47,0Zm3.09,57.06,18.14,0-5.49-17.14c-1.34-4.3-3.3-11.27-3.3-11.27h-.26s-1.83,7-3.3,11.26Z" transform="translate(-95.16 -381.94)"/><path class="cls-3" d="M684.9,470.32h25.62l28.69,49.22h.22V470.32h24.78v87.53h-26.5L709.9,508.27h-.25v49.58H684.9Z" transform="translate(-95.16 -381.94)"/><path class="cls-3" d="M772.27,470.32h40.44c25.25,0,42.77,16.15,42.77,44s-16.68,43.6-43.87,43.6H772.27Zm37.26,66.35c11.75,0,20-7.58,20-22.42,0-14.44-7.74-22.78-20-22.78H797.89v45.16h11.64Z" transform="translate(-95.16 -381.94)"/><path class="cls-3" d="M379.36,507.58h16.32V490.81h8.58v16.77h16.38v8.27H404.26v16.77h-8.58V515.85H379.36Z" transform="translate(-95.16 -381.94)"/><g class="cls-4"><path class="cls-5" d="M888.24,682H150.08a55,55,0,0,1-54.92-54.92V495.85c0-20.64,15.55-51.25,25.87-71.48,1.31-2.58,2.54-5,3.63-7.14,7.55-15.18,20.6-35.29,46.39-35.29H867.27c25.79,0,38.84,20.11,46.39,35.25,1.09,2.21,2.32,4.6,3.63,7.18,10.28,20.26,25.87,50.84,25.87,71.48V627.07A55,55,0,0,1,888.24,682Z" transform="translate(-95.16 -381.94)"/><path class="cls-3" d="M867.27,633.05H171.05a42.47,42.47,0,0,1-42.43-42.43V429a42.47,42.47,0,0,1,42.43-42.43H867.27A42.47,42.47,0,0,1,909.7,429V590.62A42.47,42.47,0,0,1,867.27,633.05Z" transform="translate(-95.16 -381.94)"/><path class="cls-2" d="M188.62,510.32c0-26.13,15.67-46.4,42.17-46.4,20.79,0,33.35,11.93,35.7,28.38h-11c-2.13-11.07-10.95-18.66-25-18.66-19.51,0-30.47,15.82-30.47,36.71,0,21.76,12.08,36.45,30.62,36.45,16.79,0,24.75-11.43,25.87-24.48h11.07a37.74,37.74,0,0,1-10.7,25c-6.24,6.09-15.29,9.31-26.61,9.31C205,556.6,188.62,537.31,188.62,510.32Z" transform="translate(-95.16 -381.94)"/><path class="cls-2" d="M272.1,490.54h9.35V470.28h10.09v20.26H304v8.23H291.54v41.79c0,4.49,2.36,6,6.47,6a19.06,19.06,0,0,0,5.35-.86h.37v8.71a39.72,39.72,0,0,1-8.08.86c-8.22,0-14.16-3.36-14.16-12.45v-44h-9.35v-8.23Z" transform="translate(-95.16 -381.94)"/><path class="cls-2" d="M322,501.23h.26c3.85-6.2,10.58-11.44,19.14-11.44a10,10,0,0,1,4.12.75v9.68h-.38a12.59,12.59,0,0,0-4.48-.63c-9.95,0-18.66,7.48-18.66,19.51v35.71H311.92V490.5H322Z" transform="translate(-95.16 -381.94)"/><path class="cls-2" d="M362.57,465.9H352.48v88.94h10.09Z" transform="translate(-95.16 -381.94)"/><path class="cls-2" d="M429.38,465.9h46c8.71,0,15.18,2.14,19.89,5.72a21.52,21.52,0,0,1,8.45,17.54c0,8.45-3.59,13.79-11.07,17v.37C502.39,509.68,508,517.91,508,528c0,9.57-3.85,16.79-10.2,21.28-5.35,3.73-12.3,5.6-21.54,5.6H429.38ZM471,500.49c5,0,8.34-2.36,8.34-7.11s-3.47-7.33-8.45-7.33h-16v14.44Zm2.4,34c5.6,0,9.46-3.37,9.46-8.71,0-5.72-4.23-8.6-9.57-8.6h-18.4v17.27h18.51Z" transform="translate(-95.16 -381.94)"/><path class="cls-2" d="M512.11,465.9h44.15c18.17,0,33.61,8.34,33.61,26.51,0,10.21-5.23,17.42-14.54,21.65v.37c7.22,2.73,10.95,7.7,12.45,14.69,2.36,10.69.37,23.52,3.59,24.38v1.34H565.76c-2.51-1.75-1.5-12.67-3.36-20.63-1.61-6.84-4.6-10.32-12.19-10.32H538.13v31h-26v-89Zm26,39.45H552c7.47,0,11.55-3.22,11.55-9.46,0-5.83-3.74-9.57-11.18-9.57H538.09Z" transform="translate(-95.16 -381.94)"/><path class="cls-2" d="M623.82,465.9h26.5l33,88.94H655.67l-4.37-13H621.2l-4.34,13H591Zm3.21,58h18.4l-5.61-17.42c-1.35-4.34-3.37-11.44-3.37-11.44h-.26s-1.87,7.1-3.36,11.44Z" transform="translate(-95.16 -381.94)"/><path class="cls-2" d="M685.65,465.9h26l29.13,50H741v-50h25.12v88.94H739.26L711,504.49h-.27v50.35H685.65Z" transform="translate(-95.16 -381.94)"/><path class="cls-2" d="M774.33,465.9h41c25.64,0,43.4,16.42,43.4,44.68s-16.93,44.3-44.53,44.3H774.33Zm37.83,67.45c11.93,0,20.27-7.7,20.27-22.77,0-14.69-7.86-23.14-20.27-23.14H800.35v45.91Z" transform="translate(-95.16 -381.94)"/><path class="cls-2" d="M375.54,503.78h16.53v-17h8.75v17h16.6v8.37h-16.6V529.2h-8.75V512.15H375.54Z" transform="translate(-95.16 -381.94)"/></g></svg>